<svg width="44" height="44" viewBox="0 0 44 44" fill="none" xmlns="http://www.w3.org/2000/svg">
<rect width="44" height="44" rx="22" fill="#8A1515"/>
<mask id="mask0_640_18" style="mask-type:alpha" maskUnits="userSpaceOnUse" x="10" y="10" width="24" height="24">
<rect x="10" y="10" width="24" height="24" fill="#D9D9D9"/>
</mask>
<g mask="url(#mask0_640_18)">
<path d="M16 32C15.45 32 14.9792 31.8042 14.5875 31.4125C14.1958 31.0208 14 30.55 14 30V18C14 17.45 14.1958 16.9792 14.5875 16.5875C14.9792 16.1958 15.45 16 16 16H18C18 14.9 18.3917 13.9583 19.175 13.175C19.9583 12.3917 20.9 12 22 12C23.1 12 24.0417 12.3917 24.825 13.175C25.6083 13.9583 26 14.9 26 16H28C28.55 16 29.0208 16.1958 29.4125 16.5875C29.8042 16.9792 30 17.45 30 18V30C30 30.55 29.8042 31.0208 29.4125 31.4125C29.0208 31.8042 28.55 32 28 32H16ZM16 30H28V18H26V20C26 20.2833 25.9042 20.5208 25.7125 20.7125C25.5208 20.9042 25.2833 21 25 21C24.7167 21 24.4792 20.9042 24.2875 20.7125C24.0958 20.5208 24 20.2833 24 20V18H20V20C20 20.2833 19.9042 20.5208 19.7125 20.7125C19.5208 20.9042 19.2833 21 19 21C18.7167 21 18.4792 20.9042 18.2875 20.7125C18.0958 20.5208 18 20.2833 18 20V18H16V30ZM20 16H24C24 15.45 23.8042 14.9792 23.4125 14.5875C23.0208 14.1958 22.55 14 22 14C21.45 14 20.9792 14.1958 20.5875 14.5875C20.1958 14.9792 20 15.45 20 16Z" fill="white"/>
</g>
</svg>
