<svg width="25" height="25" viewBox="0 0 25 25" fill="none" xmlns="http://www.w3.org/2000/svg">
<mask id="mask0_687_7" style="mask-type:alpha" maskUnits="userSpaceOnUse" x="0" y="0" width="25" height="25">
<rect x="0.512939" y="0.75589" width="24" height="24" fill="#D9D9D9"/>
</mask>
<g mask="url(#mask0_687_7)">
<path d="M7.51294 22.7559C6.96294 22.7559 6.49211 22.5601 6.10044 22.1684C5.70877 21.7767 5.51294 21.3059 5.51294 20.7559C5.51294 20.2059 5.70877 19.7351 6.10044 19.3434C6.49211 18.9517 6.96294 18.7559 7.51294 18.7559C8.06294 18.7559 8.53377 18.9517 8.92544 19.3434C9.31711 19.7351 9.51294 20.2059 9.51294 20.7559C9.51294 21.3059 9.31711 21.7767 8.92544 22.1684C8.53377 22.5601 8.06294 22.7559 7.51294 22.7559ZM17.5129 22.7559C16.9629 22.7559 16.4921 22.5601 16.1004 22.1684C15.7088 21.7767 15.5129 21.3059 15.5129 20.7559C15.5129 20.2059 15.7088 19.7351 16.1004 19.3434C16.4921 18.9517 16.9629 18.7559 17.5129 18.7559C18.0629 18.7559 18.5338 18.9517 18.9254 19.3434C19.3171 19.7351 19.5129 20.2059 19.5129 20.7559C19.5129 21.3059 19.3171 21.7767 18.9254 22.1684C18.5338 22.5601 18.0629 22.7559 17.5129 22.7559ZM6.66294 6.75589L9.06294 11.7559H16.0629L18.8129 6.75589H6.66294ZM5.71294 4.75589H20.4629C20.8463 4.75589 21.1379 4.92672 21.3379 5.26839C21.5379 5.61006 21.5463 5.95589 21.3629 6.30589L17.8129 12.7059C17.6296 13.0392 17.3838 13.2976 17.0754 13.4809C16.7671 13.6642 16.4296 13.7559 16.0629 13.7559H8.61294L7.51294 15.7559H19.5129V17.7559H7.51294C6.76294 17.7559 6.19627 17.4267 5.81294 16.7684C5.42961 16.1101 5.41294 15.4559 5.76294 14.8059L7.11294 12.3559L3.51294 4.75589H1.51294V2.75589H4.76294L5.71294 4.75589Z" fill="#FFFFFF"/>
</g>
</svg>
